<?xml version="1.0" encoding="UTF-8" standalone="no"?><!DOCTYPE svg PUBLIC "-//W3C//DTD SVG 1.1//EN" "http://www.w3.org/Graphics/SVG/1.1/DTD/svg11.dtd"><svg width="100%" height="100%" viewBox="0 0 10667 6667" version="1.1" xmlns="http://www.w3.org/2000/svg" xmlns:xlink="http://www.w3.org/1999/xlink" xml:space="preserve" xmlns:serif="http://www.serif.com/" style="fill-rule:evenodd;clip-rule:evenodd;stroke-linejoin:round;stroke-miterlimit:2;"><rect id="background2" x="0" y="0" width="10666.7" height="6666.67" style="fill:none;"/><clipPath id="_clip1"><rect x="0" y="0" width="10666.7" height="6666.67"/></clipPath><g clip-path="url(#_clip1)"><g><path d="M17066.7,6666.67l-17066.7,-0l0,-2243.81c41.323,0.061 210.333,6.205 318.922,-306.71c63.333,-182.505 20.601,-468.684 -0,-652.089c-30.964,-275.659 -45.428,-558.542 18.34,-831.65c34.199,-146.467 139.377,-450.132 381.928,-423.596c188.801,20.656 226.553,279.051 237.435,399.764c37.704,418.249 -156.139,864.145 129.871,1247.58c50.95,68.306 127.487,145.504 230.247,154.393c330.735,28.609 88.943,-792.605 436.702,-706.062c316.551,78.776 5.025,816.101 400.021,957.65c61.91,22.186 127.26,2.469 175.473,-33.365c507.042,-376.863 -67.989,-1786.65 -116.239,-2309.88c-37.999,-412.078 95.534,-759.618 301.875,-734.247c674.243,82.904 435.423,1812.97 447.359,2238.8c4.89,174.445 40.415,716.797 318.728,761.188c191.551,30.552 202.536,-279.089 206.454,-370.129c9.164,-212.916 -211.851,-1223.68 234.461,-1197.42c703.478,41.382 -15.844,1311.75 425.301,1626.82c281.982,201.399 328.78,-738.877 718.253,-503.176c176.829,107.014 380.778,973.019 596.313,801.807c461.77,-366.81 -29.584,-1563.38 -77.771,-2067.03c-16.682,-174.362 12.167,-780.461 347.23,-769.685c392.441,12.621 412.241,536.702 403.243,759.115c-24.623,608.672 -153.465,903.367 -218.679,1514.12c-20.618,193.091 -57.76,527.008 144.521,603.065c146.493,55.08 216.73,-192.456 233.47,-263.608c59.27,-251.927 -23.911,-860.462 190.096,-1040.75c33.242,-28.004 84.413,-42.31 129.871,-28.806c263.793,78.362 132.948,859.348 295.43,729.895c319.98,-254.936 103.9,-1223.62 67.91,-1562.79c-16.051,-151.257 -46.308,-503.068 228.017,-517.268c587.198,-30.395 415.847,986.143 408.943,1248.82c-1.656,63.003 -14.055,371.956 95.668,388.158c238.917,35.279 173.666,-377.875 168.557,-549.228c-5.412,-181.493 59.597,-480.946 288.717,-418.082c349.404,95.866 32.672,648.218 125,1410.39c55.002,454.045 208.424,443.566 241.666,444.018c41.324,0.061 210.334,6.205 318.922,-306.71c63.333,-182.505 20.601,-468.684 -0,-652.089c-30.963,-275.659 -45.428,-558.542 18.34,-831.65c34.2,-146.467 139.378,-450.132 381.929,-423.596c188.8,20.656 226.553,279.051 237.435,399.764c37.703,418.249 -156.14,864.145 129.87,1247.58c50.95,68.306 127.487,145.504 230.247,154.393c330.735,28.609 88.943,-792.605 436.702,-706.062c316.552,78.776 5.026,816.101 400.021,957.65c61.91,22.186 127.261,2.469 175.474,-33.365c507.041,-376.863 -67.99,-1786.65 -116.239,-2309.88c-38,-412.078 95.533,-759.618 301.874,-734.247c674.243,82.904 435.423,1812.97 447.359,2238.8c4.89,174.445 40.415,716.797 318.728,761.188c191.551,30.552 202.536,-279.089 206.454,-370.129c9.165,-212.916 -211.851,-1223.68 234.461,-1197.42c703.478,41.382 -15.844,1311.75 425.301,1626.82c281.983,201.399 328.781,-738.877 718.253,-503.176c176.829,107.014 380.779,973.019 596.314,801.807c461.769,-366.81 -29.585,-1563.38 -77.771,-2067.03c-16.682,-174.362 12.167,-780.461 347.23,-769.685c392.44,12.621 412.24,536.702 403.242,759.115c-24.623,608.672 -153.465,903.367 -218.679,1514.12c-20.618,193.091 -57.76,527.008 144.522,603.065c146.493,55.08 216.729,-192.456 233.469,-263.608c59.27,-251.927 -23.911,-860.462 190.097,-1040.75c33.241,-28.004 84.412,-42.31 129.87,-28.806c263.793,78.362 132.949,859.348 295.431,729.895c319.98,-254.936 103.9,-1223.62 67.909,-1562.79c-16.051,-151.257 -46.308,-503.068 228.017,-517.268c587.198,-30.395 415.847,986.143 408.943,1248.82c-1.656,63.003 -14.055,371.956 95.668,388.158c238.918,35.279 173.666,-377.875 168.557,-549.228c-5.411,-181.493 59.597,-480.946 288.717,-418.082c349.405,95.866 32.672,648.218 125,1410.39c55.002,454.045 208.424,443.566 241.667,444.018l-0,2243.81Z" style="fill:#ffc147;"/><path d="M8533.33,6666.67l-8533.33,-0l-0,-1285.35c422.713,0.863 419.889,-1257.89 733.324,-1257.89c369.452,0 116.314,916.529 461.751,918.777c269.938,1.757 196.313,-451.988 374.903,-563.573c201.285,-125.766 285.273,469.265 455.278,517.269c239.662,67.673 268.176,-368.52 524.864,-376.528c273.34,-8.528 317.507,605.465 433.382,761.942c113.036,152.643 309.434,226.402 414.703,0c167.395,-360.017 84.609,-876.936 389.903,-830.18c236.676,36.246 219.028,458.42 425.07,528.235c214.66,72.736 197.366,-622.896 513.612,-332.453c232.569,213.595 188.681,779.577 523.21,822.643c427.89,55.085 378.487,-642.085 625,-611.796c288.759,35.48 170.523,441.198 541.667,470.612c371.87,29.472 138.251,-536.735 360.955,-812.659c282.489,-349.996 334.989,379.952 589.595,247.972c260.34,-134.951 51.321,-890.489 440.174,-845.055c444.245,51.907 114.406,1358.69 725.942,1362.68c422.713,0.863 419.889,-1257.89 733.324,-1257.89c369.452,0 116.314,916.529 461.751,918.777c269.939,1.757 196.313,-451.988 374.903,-563.573c201.285,-125.766 285.274,469.265 455.278,517.269c239.662,67.673 268.176,-368.52 524.864,-376.528c273.34,-8.528 317.507,605.465 433.382,761.942c113.036,152.643 309.435,226.402 414.703,0c167.396,-360.017 84.61,-876.936 389.904,-830.18c236.675,36.246 219.027,458.42 425.069,528.235c214.66,72.736 197.367,-622.896 513.612,-332.453c232.569,213.595 188.681,779.577 523.21,822.643c427.89,55.085 378.487,-642.085 625,-611.796c288.759,35.48 170.523,441.198 541.667,470.612c371.871,29.472 138.251,-536.735 360.955,-812.659c282.489,-349.996 334.989,379.952 589.595,247.972c260.34,-134.951 51.321,-890.489 440.174,-845.055c444.246,51.907 114.406,1358.69 725.943,1362.68l-0,1285.35l-8533.33,-0" style="fill:#ff789e;"/><path d="M8533.33,6666.67l-8533.33,-0l0,-703.783c0,-0 130.057,-11.857 199.082,-44.666c328.762,-156.265 306.2,-402.995 514.108,-425.234c215.215,-23.02 299.708,262.981 506.172,284.275c211.278,21.79 259.783,-282.382 456.685,-284.275c222.408,-2.138 291.49,278.381 488.962,284.275c181.834,5.427 241.115,-142.664 416.163,-121.235c223.381,27.347 354.92,352.717 719.872,368.756c456.618,20.068 694.569,-395.432 1063.39,-368.756c232.068,16.786 366.544,302.794 586.905,368.034c405.434,120.033 649.006,-165.619 933.412,-145.048c255.719,18.496 354.922,212.091 693.644,145.77c419.247,-82.088 496.814,-544.049 924.619,-531.796c423.398,12.127 559.589,469.798 1030.32,469.9c0,-0 130.057,-11.857 199.082,-44.666c328.762,-156.265 306.2,-402.995 514.108,-425.234c215.215,-23.02 299.708,262.981 506.172,284.275c211.278,21.79 259.783,-282.382 456.685,-284.275c222.409,-2.138 291.49,278.381 488.962,284.275c181.834,5.427 241.115,-142.664 416.163,-121.235c223.381,27.347 354.92,352.717 719.872,368.756c456.618,20.068 694.569,-395.432 1063.39,-368.756c232.069,16.786 366.545,302.794 586.906,368.034c405.433,120.033 649.006,-165.619 933.411,-145.048c255.72,18.496 354.922,212.091 693.645,145.77c419.246,-82.088 496.814,-544.049 924.618,-531.796c423.398,12.127 559.589,469.798 1030.32,469.9l-0,703.783l-8533.33,-0" style="fill:#22b8b5;"/></g></g></svg>