<?xml version="1.0" encoding="UTF-8" standalone="no"?><!DOCTYPE svg PUBLIC "-//W3C//DTD SVG 1.1//EN" "http://www.w3.org/Graphics/SVG/1.1/DTD/svg11.dtd"><svg width="100%" height="100%" viewBox="0 0 500 127" version="1.1" xmlns="http://www.w3.org/2000/svg" xmlns:xlink="http://www.w3.org/1999/xlink" xml:space="preserve" xmlns:serif="http://www.serif.com/" style="fill-rule:evenodd;clip-rule:evenodd;stroke-linejoin:round;stroke-miterlimit:2;"><rect id="logo4" x="0" y="-0" width="500" height="126.187" style="fill:none;"/><g><text x="4.77px" y="115.562px" style="font-family:'Mali-Light', 'Mali';font-weight:300;font-size:151.424px;fill:#343434;">TV</text><text x="292.928px" y="116.319px" style="font-family:'Mali-Light', 'Mali';font-weight:300;font-size:151.424px;fill:#343434;">NK</text><g><g><path d="M183.394,75.431l-0.162,0.084c-1.099,0.586 -4.948,2.792 -7.994,5.416c-1.745,1.504 -3.307,3.075 -3.534,4.591c-0.145,0.963 -1.044,1.628 -2.008,1.484c-0.963,-0.145 -1.628,-1.044 -1.483,-2.008c0.25,-1.672 1.421,-3.518 3.116,-5.245c3.396,-3.46 8.849,-6.61 10.241,-7.353c0.517,-0.276 0.855,-0.342 0.894,-0.348c0.85,-0.123 1.305,0.295 1.521,0.517c0.289,0.298 0.461,0.661 0.494,1.099c0.02,0.274 0.011,0.708 -0.345,1.187c-0.198,0.265 -0.455,0.458 -0.74,0.576Zm-1.864,-0.326c0.226,0.216 0.635,0.516 1.32,0.455c-0.41,0.031 -0.832,-0.08 -1.186,-0.344c-0.047,-0.035 -0.092,-0.072 -0.134,-0.111Zm-0.228,-0.25l0.013,0.016l-0.02,-0.027l0.007,0.011Zm-0.329,-0.794c0.041,0.291 0.148,0.547 0.313,0.771c-0.166,-0.231 -0.272,-0.496 -0.313,-0.771Zm-0.007,-0.049l0.005,0.033l-0.007,-0.054l0.002,0.021Zm-0.007,-0.081l0.001,0.016l-0.002,-0.032l0.001,0.016Zm0.291,-1.11c-0.279,0.411 -0.308,0.783 -0.295,1.042c-0.013,-0.359 0.082,-0.724 0.295,-1.042Z" style="fill:#894797;"/><path d="M296.355,40.126c-0.132,-0.057 -0.457,-0.194 -0.704,-0.25c-0.603,-0.138 -1.336,-0.206 -2.146,-0.231c-5.312,-0.168 -13.618,1.518 -13.618,1.518c-0.955,0.193 -1.886,-0.426 -2.079,-1.381c-0.193,-0.955 0.426,-1.887 1.381,-2.079c0,-0 8.801,-1.764 14.428,-1.587c1.683,0.053 3.114,0.296 4.073,0.723c1.102,0.492 1.744,1.246 1.988,2.119c0.262,0.938 -0.287,1.913 -1.225,2.175c-0.863,0.241 -1.756,-0.204 -2.098,-1.007Z" style="fill:#894797;"/></g><g><path d="M261.313,16.252c-24.37,-17.731 -69.331,-4.84 -78.661,30.951c-7.674,29.442 12.658,66.235 46.355,68.957c49.458,3.994 75.921,-68.174 32.306,-99.908Z" style="fill:#22b8b5;"/><path d="M201.617,104.755c7.502,6.316 16.784,10.548 27.39,11.405c24.149,1.95 42.816,-14.258 50.52,-35.051c-0,0 0.025,-0.069 -0,0c0.151,-0.335 -2.092,-7.218 -4.853,-9.747c-0.692,-0.634 -1.588,-0.872 -2.435,-0.537c-6.251,2.47 -0.565,20.024 -8.153,19.899c-3.917,-0.065 -5.721,-11.726 -9.326,-14.257c-4.808,-3.377 -3.385,9.458 -7.891,8.903c-4.389,-0.54 -6.379,-14.851 -11.983,-9.909c-5.429,4.788 5.859,18.298 -0.655,25.82c-7.55,8.719 -12.721,-13.693 -18.301,-13.377c-5.583,0.315 0.452,11.274 -4.577,12.487c-5.339,1.287 -7.377,-11.853 -11.586,-9.532c-5.045,2.781 1.797,13.922 1.86,13.904l-0.01,-0.008Z" style="fill:#ffc141;"/><path d="M181.048,61.287c1.109,2.787 2.748,5.371 5.495,6.153c10.02,2.854 0.112,-17.496 5.047,-18.268c5.414,-0.846 5.228,19.414 12.856,16.098c5.931,-2.579 -1.482,-17.528 -1.918,-22.154c-0.203,-2.149 -0.21,-7.63 2.779,-7.809c6.053,-0.364 9.468,20.76 11.464,25.683c0.882,2.173 3.134,7.406 6.073,6.879c5.418,-0.971 0.085,-14.63 4.912,-17.376c5.084,-2.892 4.293,10.809 9.249,9.057c1.332,-0.47 2.125,-2.031 2.585,-3.341c2.577,-7.35 -2.789,-15.889 -2.879,-23.394c-0.023,-1.929 -0.15,-7.198 2.251,-7.905c1.956,-0.576 3.665,3.055 4.317,4.421c1.578,3.306 3.285,17.771 5.184,18.421c3.686,1.263 2.344,-12.356 7.188,-13.307c1.025,-0.201 1.95,0.4 2.588,1.214c3.441,4.39 2.898,14.206 3.886,19.73c0.46,2.571 1.955,5.93 4.818,3.859c5.523,-3.995 2.456,-16.328 1.079,-21.851c-0.478,-1.917 -2.368,-7.227 -0.469,-8.87c3.436,-2.972 4.783,10.71 6.525,11.492c2.283,1.025 2.349,-3.636 1.734,-8.097l0,-0c-3.504,-5.818 -8.292,-11.153 -14.499,-15.67c-24.37,-17.731 -69.331,-4.84 -78.661,30.951c-1.191,4.57 -1.707,9.316 -1.604,14.086l-0,-0.002Z" style="fill:#ff789e;"/></g><path d="M296.254,39.812c-0.2,-0.908 0.343,-1.826 1.249,-2.079c0.938,-0.262 1.913,0.287 2.175,1.225c0.23,0.822 0.145,1.816 -0.51,2.942c-0.61,1.049 -1.829,2.343 -3.791,3.82c-6.697,5.045 -22.81,12.979 -51.929,23.84c-11.155,4.161 -52.016,16.934 -67.419,18.596c-3.222,0.347 -5.5,0.104 -6.505,-0.489c-1.065,-0.628 -1.482,-1.531 -1.311,-2.669c0.144,-0.963 1.043,-1.628 2.007,-1.484c0.674,0.101 1.202,0.573 1.409,1.177c0.239,0.046 0.581,0.1 0.883,0.113c0.845,0.035 1.902,-0.025 3.138,-0.158c15.21,-1.641 55.549,-14.285 66.565,-18.394c28.602,-10.668 44.459,-18.396 51.038,-23.352c1.247,-0.939 2.131,-1.75 2.656,-2.462c0.16,-0.218 0.308,-0.541 0.345,-0.626Z" style="fill:#894797;"/></g></g></svg>