<?xml version="1.0" encoding="UTF-8" standalone="no"?><!DOCTYPE svg PUBLIC "-//W3C//DTD SVG 1.1//EN" "http://www.w3.org/Graphics/SVG/1.1/DTD/svg11.dtd"><svg width="100%" height="100%" viewBox="0 0 500 127" version="1.1" xmlns="http://www.w3.org/2000/svg" xmlns:xlink="http://www.w3.org/1999/xlink" xml:space="preserve" xmlns:serif="http://www.serif.com/" style="fill-rule:evenodd;clip-rule:evenodd;stroke-linejoin:round;stroke-miterlimit:2;"><rect id="logo4" x="0" y="0" width="500" height="126.187" style="fill:none;"/><g><g><path d="M77.302,11.382c2.625,0.202 3.937,1.514 3.937,3.937c-0,1.211 -0.328,2.196 -0.984,2.953c-0.657,0.757 -1.641,1.085 -2.953,0.984c-9.691,-0.808 -18.676,-1.211 -26.954,-1.211c-0.908,13.628 -1.665,29.325 -2.271,47.093c-0.808,22.41 -1.262,37.906 -1.363,46.487c0,1.716 -0.353,2.927 -1.06,3.634c-0.706,0.707 -1.817,1.06 -3.331,1.06c-1.514,-0 -2.625,-0.353 -3.331,-1.06c-0.707,-0.707 -1.06,-1.969 -1.06,-3.786c-0,-4.341 0.252,-11.811 0.757,-22.41c0.807,-17.667 1.161,-25.591 1.06,-23.774c0.504,-13.022 1.262,-28.771 2.271,-47.244c-5.249,0.101 -10.07,0.303 -14.461,0.605c-4.391,0.303 -8.959,0.657 -13.704,1.06c-1.211,0.202 -2.195,-0.05 -2.953,-0.757c-0.757,-0.706 -1.135,-1.766 -1.135,-3.18c-0,-2.322 1.06,-3.533 3.18,-3.634c10.095,-1.211 21.704,-1.817 34.827,-1.817c12.518,0 22.36,0.353 29.528,1.06Z" style="fill:#343434;fill-rule:nonzero;"/><path d="M135.6,115.41c-4.442,0 -7.874,-2.17 -10.297,-6.511c-1.413,-2.726 -3.382,-7.571 -5.905,-14.537c-2.524,-6.965 -6.31,-18.877 -11.357,-35.736l-5.3,-18.322c-4.139,-13.931 -6.864,-22.966 -8.177,-27.105c-0.202,-0.807 -0.303,-1.262 -0.303,-1.363c0,-1.009 0.455,-1.842 1.363,-2.498c0.909,-0.656 1.969,-0.984 3.18,-0.984c1.716,-0 2.827,0.706 3.331,2.119l7.269,24.683c2.826,9.994 4.997,17.413 6.511,22.259c4.442,14.739 7.798,25.414 10.07,32.026c2.271,6.612 4.088,11.029 5.451,13.25c1.363,2.221 2.751,3.331 4.164,3.331c1.514,-0.101 2.877,-1.237 4.089,-3.407c1.211,-2.17 2.801,-6.41 4.769,-12.72c1.969,-6.309 5.124,-17.136 9.464,-32.48l1.817,-6.208c6.158,-22.613 9.793,-36.039 10.903,-40.279c0.606,-1.414 1.817,-2.12 3.634,-2.12c1.313,-0 2.372,0.303 3.18,0.908c0.808,0.606 1.211,1.464 1.211,2.575c0,0.504 -0.05,0.908 -0.151,1.211c-2.827,10.701 -5.905,21.805 -9.237,33.313l-3.18,11.206c-4.845,17.06 -8.404,29.098 -10.675,36.114c-2.271,7.016 -4.063,11.937 -5.376,14.764c-1.009,2.019 -2.422,3.609 -4.24,4.77c-1.817,1.161 -3.886,1.741 -6.208,1.741Z" style="fill:#343434;fill-rule:nonzero;"/></g><g><path d="M386.054,8.505c2.927,-0 4.391,1.514 4.391,4.543l-0.152,60.569c0,11.408 -0.302,20.013 -0.908,25.818c-0.606,5.805 -1.514,9.742 -2.726,11.811c-1.211,2.07 -2.927,3.104 -5.148,3.104c-3.533,0 -8.404,-4.164 -14.613,-12.492c-6.208,-8.328 -14.259,-20.417 -24.152,-36.266c-14.536,-23.017 -24.379,-37.806 -29.527,-44.367l0.151,21.048c0.101,4.542 0.151,11.457 0.151,20.745l0.152,48.304c-0,0.908 -0.379,1.691 -1.136,2.347c-0.757,0.656 -1.741,0.984 -2.953,0.984c-1.11,0 -2.094,-0.328 -2.952,-0.984c-0.858,-0.656 -1.287,-1.439 -1.287,-2.347l-0,-48.153c-0,-9.489 -0.051,-16.657 -0.152,-21.502l-0.151,-24.228c-0,-2.524 0.404,-4.467 1.211,-5.83c0.808,-1.363 2.271,-2.044 4.391,-2.044c2.928,-0 6.739,3.18 11.433,9.54c4.694,6.359 11.079,15.95 19.155,28.77l6.36,10.146c15.849,24.934 26.65,40.48 32.405,46.638c1.312,-5.451 1.968,-15.798 1.968,-31.042l0,-61.175c0,-2.625 1.363,-3.937 4.089,-3.937Z" style="fill:#343434;fill-rule:nonzero;"/><path d="M486.296,11.685c1.111,-0 2.044,0.378 2.802,1.136c0.757,0.757 1.135,1.741 1.135,2.952c0,1.313 -0.505,2.322 -1.514,3.029c-4.644,3.634 -12.063,8.934 -22.259,15.899c0.101,-0.101 -3.079,2.07 -9.54,6.512c-7.874,5.249 -14.335,9.388 -19.382,12.416c-1.616,1.111 -3.281,2.196 -4.997,3.256c-1.716,1.06 -3.483,2.196 -5.3,3.407l4.997,4.846c3.129,3.028 6.385,6.132 9.767,9.312c3.381,3.18 7.243,6.587 11.584,10.221c5.754,4.947 10.498,8.808 14.233,11.584c3.736,2.776 8.682,6.284 14.84,10.524l2.726,1.969c1.11,0.807 1.665,1.918 1.665,3.331c0,1.211 -0.378,2.196 -1.135,2.953c-0.757,0.757 -1.641,1.135 -2.65,1.135c-0.909,0 -1.767,-0.302 -2.574,-0.908c-10.398,-7.369 -20.998,-15.546 -31.8,-24.531c-5.552,-4.643 -10.145,-8.656 -13.779,-12.038c-3.634,-3.382 -7.571,-7.344 -11.811,-11.887c-0,4.543 -0.101,11.256 -0.303,20.14c-0.202,11.71 -0.303,19.988 -0.303,24.833c0,2.928 -1.413,4.391 -4.24,4.391c-2.725,0 -4.088,-1.615 -4.088,-4.845c-0,-3.331 0.101,-10.146 0.303,-20.442c0.303,-19.383 0.454,-30.336 0.454,-32.859c-0,-8.076 -0.051,-14.184 -0.151,-18.323l-0.152,-25.439c0,-1.009 0.404,-1.867 1.211,-2.574c0.808,-0.707 1.818,-1.06 3.029,-1.06c1.312,-0 2.347,0.378 3.104,1.136c0.757,0.757 1.136,1.741 1.136,2.952l0.151,39.068c7.975,-4.846 17.313,-10.903 28.014,-18.171c14.032,-9.489 24.783,-17.212 32.253,-23.168c0.808,-0.505 1.666,-0.757 2.574,-0.757Z" style="fill:#343434;fill-rule:nonzero;"/></g><g><g><path d="M183.394,75.431l-0.162,0.084c-1.099,0.586 -4.948,2.792 -7.994,5.416c-1.745,1.504 -3.307,3.075 -3.534,4.591c-0.145,0.963 -1.044,1.628 -2.008,1.484c-0.963,-0.145 -1.628,-1.044 -1.483,-2.008c0.25,-1.672 1.421,-3.518 3.116,-5.245c3.396,-3.46 8.849,-6.61 10.241,-7.353c0.517,-0.276 0.855,-0.342 0.894,-0.348c0.85,-0.123 1.305,0.295 1.521,0.517c0.289,0.298 0.461,0.661 0.494,1.099c0.02,0.274 0.011,0.708 -0.345,1.187c-0.198,0.265 -0.455,0.458 -0.74,0.576Zm-1.864,-0.326c0.226,0.216 0.635,0.516 1.32,0.455c-0.41,0.031 -0.832,-0.08 -1.186,-0.344c-0.047,-0.035 -0.092,-0.072 -0.134,-0.111Zm-0.228,-0.25l0.013,0.016l-0.02,-0.027l0.007,0.011Zm-0.329,-0.794c0.041,0.291 0.148,0.547 0.313,0.771c-0.166,-0.231 -0.272,-0.496 -0.313,-0.771Zm-0.007,-0.049l0.005,0.033l-0.007,-0.054l0.002,0.021Zm-0.007,-0.081l0.001,0.016l-0.002,-0.032l0.001,0.016Zm0.291,-1.11c-0.279,0.411 -0.308,0.783 -0.295,1.042c-0.013,-0.359 0.082,-0.724 0.295,-1.042Z" style="fill:#894797;"/><path d="M296.355,40.126c-0.132,-0.057 -0.457,-0.194 -0.704,-0.25c-0.603,-0.138 -1.336,-0.206 -2.146,-0.231c-5.312,-0.168 -13.618,1.518 -13.618,1.518c-0.955,0.193 -1.886,-0.426 -2.079,-1.381c-0.193,-0.955 0.426,-1.887 1.381,-2.079c0,-0 8.801,-1.764 14.428,-1.587c1.683,0.053 3.114,0.296 4.073,0.723c1.102,0.492 1.744,1.246 1.988,2.119c0.262,0.938 -0.287,1.913 -1.225,2.175c-0.863,0.241 -1.756,-0.204 -2.098,-1.007Z" style="fill:#894797;"/></g><g><path d="M261.313,16.252c-24.37,-17.731 -69.331,-4.84 -78.661,30.951c-7.674,29.442 12.658,66.235 46.355,68.957c49.458,3.994 75.921,-68.174 32.306,-99.908Z" style="fill:#22b8b5;"/><path d="M201.617,104.755c7.502,6.316 16.784,10.548 27.39,11.405c24.149,1.95 42.816,-14.258 50.52,-35.051c-0,0 0.025,-0.069 -0,0c0.151,-0.335 -2.092,-7.218 -4.853,-9.747c-0.692,-0.634 -1.588,-0.872 -2.435,-0.537c-6.251,2.47 -0.565,20.024 -8.153,19.899c-3.917,-0.065 -5.721,-11.726 -9.326,-14.257c-4.808,-3.377 -3.385,9.458 -7.891,8.903c-4.389,-0.54 -6.379,-14.851 -11.983,-9.909c-5.429,4.788 5.859,18.298 -0.655,25.82c-7.55,8.719 -12.721,-13.693 -18.301,-13.377c-5.583,0.315 0.452,11.274 -4.577,12.487c-5.339,1.287 -7.377,-11.853 -11.586,-9.532c-5.045,2.781 1.797,13.922 1.86,13.904l-0.01,-0.008Z" style="fill:#ffc141;"/><path d="M181.048,61.287c1.109,2.787 2.748,5.371 5.495,6.153c10.02,2.854 0.112,-17.496 5.047,-18.268c5.414,-0.846 5.228,19.414 12.856,16.098c5.931,-2.579 -1.482,-17.528 -1.918,-22.154c-0.203,-2.149 -0.21,-7.63 2.779,-7.809c6.053,-0.364 9.468,20.76 11.464,25.683c0.882,2.173 3.134,7.406 6.073,6.879c5.418,-0.971 0.085,-14.63 4.912,-17.376c5.084,-2.892 4.293,10.809 9.249,9.057c1.332,-0.47 2.125,-2.031 2.585,-3.341c2.577,-7.35 -2.789,-15.889 -2.879,-23.394c-0.023,-1.929 -0.15,-7.198 2.251,-7.905c1.956,-0.576 3.665,3.055 4.317,4.421c1.578,3.306 3.285,17.771 5.184,18.421c3.686,1.263 2.344,-12.356 7.188,-13.307c1.025,-0.201 1.95,0.4 2.588,1.214c3.441,4.39 2.898,14.206 3.886,19.73c0.46,2.571 1.955,5.93 4.818,3.859c5.523,-3.995 2.456,-16.328 1.079,-21.851c-0.478,-1.917 -2.368,-7.227 -0.469,-8.87c3.436,-2.972 4.783,10.71 6.525,11.492c2.283,1.025 2.349,-3.636 1.734,-8.097l0,-0c-3.504,-5.818 -8.292,-11.153 -14.499,-15.67c-24.37,-17.731 -69.331,-4.84 -78.661,30.951c-1.191,4.57 -1.707,9.316 -1.604,14.086l-0,-0.002Z" style="fill:#ff789e;"/></g><path d="M296.254,39.812c-0.2,-0.908 0.343,-1.826 1.249,-2.079c0.938,-0.262 1.913,0.287 2.175,1.225c0.23,0.822 0.145,1.816 -0.51,2.942c-0.61,1.049 -1.829,2.343 -3.791,3.82c-6.697,5.045 -22.81,12.979 -51.929,23.84c-11.155,4.161 -52.016,16.934 -67.419,18.596c-3.222,0.347 -5.5,0.104 -6.505,-0.489c-1.065,-0.628 -1.482,-1.531 -1.311,-2.669c0.144,-0.963 1.043,-1.628 2.007,-1.484c0.674,0.101 1.202,0.573 1.409,1.177c0.239,0.046 0.581,0.1 0.883,0.113c0.845,0.035 1.902,-0.025 3.138,-0.158c15.21,-1.641 55.549,-14.285 66.565,-18.394c28.602,-10.668 44.459,-18.396 51.038,-23.352c1.247,-0.939 2.131,-1.75 2.656,-2.462c0.16,-0.218 0.308,-0.541 0.345,-0.626Z" style="fill:#894797;"/></g></g></svg>